<svg width="2667" height="4204" xmlns="http://www.w3.org/2000/svg" xmlns:xlink="http://www.w3.org/1999/xlink" overflow="hidden"><defs><clipPath id="clip0"><rect x="1539" y="-1" width="2667" height="4204"/></clipPath><clipPath id="clip1"><rect x="1539" y="0" width="2665" height="4200"/></clipPath><clipPath id="clip2"><rect x="2013" y="106" width="2133" height="3942"/></clipPath><clipPath id="clip3"><rect x="2013" y="106" width="2133" height="3942"/></clipPath><clipPath id="clip4"><rect x="2013" y="106" width="2133" height="3942"/></clipPath><clipPath id="clip5"><rect x="1539" y="0" width="2665" height="4200"/></clipPath><clipPath id="clip6"><rect x="1539" y="0" width="2665" height="4200"/></clipPath><clipPath id="clip7"><rect x="1539" y="0" width="2665" height="4200"/></clipPath><clipPath id="clip8"><rect x="1539" y="0" width="2665" height="4200"/></clipPath><clipPath id="clip9"><rect x="1539" y="0" width="2665" height="4200"/></clipPath><clipPath id="clip10"><rect x="1539" y="0" width="2665" height="4200"/></clipPath><clipPath id="clip11"><rect x="1539" y="0" width="2665" height="4200"/></clipPath><clipPath id="clip12"><rect x="1539" y="0" width="2665" height="4200"/></clipPath><clipPath id="clip13"><rect x="1539" y="0" width="2665" height="4200"/></clipPath><clipPath id="clip14"><rect x="1539" y="0" width="2665" height="4200"/></clipPath><clipPath id="clip15"><rect x="1539" y="0" width="2665" height="4200"/></clipPath><clipPath id="clip16"><rect x="1539" y="0" width="2665" height="4200"/></clipPath><clipPath id="clip17"><rect x="1539" y="0" width="2665" height="4200"/></clipPath><clipPath id="clip18"><rect x="1539" y="0" width="2665" height="4200"/></clipPath><clipPath id="clip19"><rect x="1539" y="0" width="2665" height="4200"/></clipPath><clipPath id="clip20"><rect x="1539" y="0" width="2665" height="4200"/></clipPath><clipPath id="clip21"><rect x="1539" y="0" width="2665" height="4200"/></clipPath><clipPath id="clip22"><rect x="1539" y="0" width="2665" height="4200"/></clipPath><clipPath id="clip23"><rect x="1539" y="0" width="2665" height="4200"/></clipPath><clipPath id="clip24"><rect x="1539" y="0" width="2665" height="4200"/></clipPath><clipPath id="clip25"><rect x="1539" y="0" width="2665" height="4200"/></clipPath><clipPath id="clip26"><rect x="1539" y="0" width="2665" height="4200"/></clipPath><clipPath id="clip27"><rect x="1539" y="0" width="2665" height="4200"/></clipPath><clipPath id="clip28"><rect x="1539" y="0" width="2665" height="4200"/></clipPath><clipPath id="clip29"><rect x="1539" y="0" width="2665" height="4200"/></clipPath><clipPath id="clip30"><rect x="1539" y="0" width="2665" height="4200"/></clipPath><clipPath id="clip31"><rect x="1539" y="0" width="2665" height="4200"/></clipPath><clipPath id="clip32"><rect x="1539" y="0" width="2665" height="4200"/></clipPath><clipPath id="clip33"><rect x="1539" y="0" width="2665" height="4200"/></clipPath><clipPath id="clip34"><rect x="1539" y="0" width="2665" height="4200"/></clipPath><clipPath id="clip35"><rect x="1539" y="0" width="2665" height="4200"/></clipPath><clipPath id="clip36"><rect x="1539" y="0" width="2665" height="4200"/></clipPath><clipPath id="clip37"><rect x="1539" y="0" width="2665" height="4200"/></clipPath><clipPath id="clip38"><rect x="1539" y="0" width="2665" height="4200"/></clipPath><clipPath id="clip39"><rect x="1539" y="0" width="2665" height="4200"/></clipPath><clipPath id="clip40"><rect x="1539" y="0" width="2665" height="4200"/></clipPath><clipPath id="clip41"><rect x="1539" y="0" width="2665" height="4200"/></clipPath><clipPath id="clip42"><rect x="1539" y="0" width="2665" height="4200"/></clipPath><clipPath id="clip43"><rect x="1539" y="0" width="2665" height="4200"/></clipPath><clipPath id="clip44"><rect x="1539" y="0" width="2665" height="4200"/></clipPath><clipPath id="clip45"><rect x="1539" y="0" width="2665" height="4200"/></clipPath><clipPath id="clip46"><rect x="1539" y="0" width="2665" height="4200"/></clipPath><clipPath id="clip47"><rect x="1539" y="0" width="2665" height="4200"/></clipPath><clipPath id="clip48"><rect x="1539" y="0" width="2665" height="4200"/></clipPath><clipPath id="clip49"><rect x="1539" y="0" width="2665" height="4200"/></clipPath><clipPath id="clip50"><rect x="1539" y="0" width="2665" height="4200"/></clipPath><clipPath id="clip51"><rect x="1539" y="0" width="2665" height="4200"/></clipPath><clipPath id="clip52"><rect x="1539" y="0" width="2665" height="4200"/></clipPath><clipPath id="clip53"><rect x="1539" y="0" width="2665" height="4200"/></clipPath><clipPath id="clip54"><rect x="1539" y="0" width="2665" height="4200"/></clipPath><clipPath id="clip55"><rect x="1539" y="0" width="2665" height="4200"/></clipPath><clipPath id="clip56"><rect x="1539" y="0" width="2665" height="4200"/></clipPath><clipPath id="clip57"><rect x="1539" y="0" width="2665" height="4200"/></clipPath><clipPath id="clip58"><rect x="1539" y="0" width="2665" height="4200"/></clipPath><clipPath id="clip59"><rect x="1539" y="0" width="2665" height="4200"/></clipPath><clipPath id="clip60"><rect x="1539" y="0" width="2665" height="4200"/></clipPath><clipPath id="clip61"><rect x="1539" y="0" width="2665" height="4200"/></clipPath><clipPath id="clip62"><rect x="1539" y="0" width="2665" height="4200"/></clipPath><clipPath id="clip63"><rect x="1539" y="0" width="2665" height="4200"/></clipPath><clipPath id="clip64"><rect x="1539" y="0" width="2665" height="4200"/></clipPath><clipPath id="clip65"><rect x="1539" y="0" width="2665" height="4200"/></clipPath><clipPath id="clip66"><rect x="1539" y="0" width="2665" height="4200"/></clipPath><clipPath id="clip67"><rect x="1539" y="0" width="2665" height="4200"/></clipPath><clipPath id="clip68"><rect x="1539" y="0" width="2665" height="4200"/></clipPath><clipPath id="clip69"><rect x="1539" y="0" width="2665" height="4200"/></clipPath><clipPath id="clip70"><rect x="1539" y="0" width="2665" height="4200"/></clipPath><clipPath id="clip71"><rect x="1539" y="0" width="2665" height="4200"/></clipPath><clipPath id="clip72"><rect x="1539" y="0" width="2665" height="4200"/></clipPath><clipPath id="clip73"><rect x="1539" y="0" width="2665" height="4200"/></clipPath><clipPath id="clip74"><rect x="1539" y="0" width="2665" height="4200"/></clipPath><clipPath id="clip75"><rect x="1539" y="0" width="2665" height="4200"/></clipPath><clipPath id="clip76"><rect x="1539" y="0" width="2665" height="4200"/></clipPath><clipPath id="clip77"><rect x="1539" y="0" width="2665" height="4200"/></clipPath><clipPath id="clip78"><rect x="1539" y="0" width="2665" height="4200"/></clipPath><clipPath id="clip79"><rect x="1539" y="0" width="2665" height="4200"/></clipPath><clipPath id="clip80"><rect x="1539" y="0" width="2665" height="4200"/></clipPath><clipPath id="clip81"><rect x="1539" y="0" width="2665" height="4200"/></clipPath><clipPath id="clip82"><rect x="1539" y="0" width="2665" height="4200"/></clipPath><clipPath id="clip83"><rect x="1539" y="0" width="2665" height="4200"/></clipPath><clipPath id="clip84"><rect x="1539" y="0" width="2665" height="4200"/></clipPath><clipPath id="clip85"><rect x="1539" y="0" width="2665" height="4200"/></clipPath><clipPath id="clip86"><rect x="1539" y="0" width="2665" height="4200"/></clipPath><clipPath id="clip87"><rect x="1539" y="0" width="2665" height="4200"/></clipPath><clipPath id="clip88"><rect x="1539" y="0" width="2665" height="4200"/></clipPath><clipPath id="clip89"><rect x="1539" y="0" width="2665" height="4200"/></clipPath><clipPath id="clip90"><rect x="1539" y="0" width="2665" height="4200"/></clipPath><clipPath id="clip91"><rect x="1539" y="0" width="2665" height="4200"/></clipPath><clipPath id="clip92"><rect x="1539" y="0" width="2665" height="4200"/></clipPath><clipPath id="clip93"><rect x="1539" y="0" width="2665" height="4200"/></clipPath><clipPath id="clip94"><rect x="1539" y="0" width="2665" height="4200"/></clipPath><clipPath id="clip95"><rect x="1539" y="0" width="2665" height="4200"/></clipPath><clipPath id="clip96"><rect x="1539" y="0" width="2665" height="4200"/></clipPath><clipPath id="clip97"><rect x="1539" y="0" width="2665" height="4200"/></clipPath><clipPath id="clip98"><rect x="1539" y="0" width="2665" height="4200"/></clipPath><clipPath id="clip99"><rect x="1539" y="0" width="2665" height="4200"/></clipPath><clipPath id="clip100"><rect x="1539" y="0" width="2665" height="4200"/></clipPath><clipPath id="clip101"><rect x="1539" y="0" width="2665" height="4200"/></clipPath><clipPath id="clip102"><rect x="1539" y="0" width="2665" height="4200"/></clipPath><clipPath id="clip103"><rect x="1539" y="0" width="2665" height="4200"/></clipPath><clipPath id="clip104"><rect x="1539" y="0" width="2665" height="4200"/></clipPath><clipPath id="clip105"><rect x="1539" y="0" width="2665" height="4200"/></clipPath></defs><g clip-path="url(#clip0)" transform="translate(-1539 1)"><rect x="1540" y="0" width="2664" height="4201" fill="#FFFFFF"/><g clip-path="url(#clip1)"><path d="M2317.58 106.5 2317.58 4045.5M2622.59 106.5 2622.59 4045.5M2926.6 106.5 2926.6 4045.5M3230.61 106.5 3230.61 4045.5M3534.62 106.5 3534.62 4045.5M3838.63 106.5 3838.63 4045.5M4143.5 106.5 4143.5 4045.5" stroke="#D9D9D9" stroke-width="3.4375" stroke-linejoin="round" stroke-miterlimit="10" fill="none"/></g><g clip-path="url(#clip2)"><path d="M2047.07 139.005 2014 139.005 2014 174.006 2047.07 174.006ZM3979.13 481.016 2014 481.016 2014 517.017 3979.13 517.017ZM3997.13 652.021 2014 652.021 2014 688.023 3997.13 688.023ZM3039.1 824.027 2014 824.027 2014 859.028 3039.1 859.028ZM2050.07 1166.04 2014 1166.04 2014 1202.04 2050.07 1202.04ZM2099.07 1509.05 2014 1509.05 2014 1544.05 2099.07 1544.05ZM2099.07 1680.06 2014 1680.06 2014 1715.06 2099.07 1715.06ZM2129.07 1851.06 2014 1851.06 2014 1887.06 2129.07 1887.06ZM2074.07 2194.07 2014 2194.07 2014 2229.07 2074.07 2229.07ZM2059.07 2365.08 2014 2365.08 2014 2401.08 2059.07 2401.08ZM2777.09 2708.09 2014 2708.09 2014 2743.09 2777.09 2743.09ZM2050.07 2879.09 2014 2879.09 2014 2914.1 2050.07 2914.1ZM2017.07 3050.1 2014 3050.1 2014 3086.1 2017.07 3086.1ZM2479.08 3221.11 2014 3221.11 2014 3257.11 2479.08 3257.11ZM2077.07 3393.11 2014 3393.11 2014 3428.11 2077.07 3428.11ZM3109.1 3564.12 2014 3564.12 2014 3599.12 3109.1 3599.12ZM2993.1 3735.12 2014 3735.12 2014 3771.12 2993.1 3771.12Z" fill="#4472C4"/></g><g clip-path="url(#clip3)"><path d="M2047.07 174.006 2014 174.006 2014 210.007 2047.07 210.007ZM2357.08 345.011 2014 345.011 2014 381.013 2357.08 381.013ZM3681.12 517.017 2014 517.017 2014 552.018 3681.12 552.018ZM3693.12 688.023 2014 688.023 2014 723.024 3693.12 723.024ZM2941.1 859.028 2014 859.028 2014 895.029 2941.1 895.029ZM2160.07 1030.03 2014 1030.03 2014 1066.03 2160.07 1066.03ZM2047.07 1202.04 2014 1202.04 2014 1237.04 2047.07 1237.04ZM2123.07 1373.05 2014 1373.05 2014 1409.05 2123.07 1409.05ZM2084.07 1544.05 2014 1544.05 2014 1580.05 2084.07 1580.05ZM2087.07 1715.06 2014 1715.06 2014 1751.06 2087.07 1751.06ZM2114.07 1887.06 2014 1887.06 2014 1922.06 2114.07 1922.06ZM2141.07 2058.07 2014 2058.07 2014 2094.07 2141.07 2094.07ZM2065.07 2229.07 2014 2229.07 2014 2265.07 2065.07 2265.07ZM2059.07 2401.08 2014 2401.08 2014 2436.08 2059.07 2436.08ZM2068.07 2572.08 2014 2572.08 2014 2607.09 2068.07 2607.09ZM2710.09 2743.09 2014 2743.09 2014 2779.09 2710.09 2779.09ZM2047.07 2914.1 2014 2914.1 2014 2950.1 2047.07 2950.1ZM2017.07 3086.1 2014 3086.1 2014 3121.1 2017.07 3121.1ZM2446.08 3257.11 2014 3257.11 2014 3292.11 2446.08 3292.11ZM2071.07 3428.11 2014 3428.11 2014 3464.11 2071.07 3464.11ZM3039.1 3599.12 2014 3599.12 2014 3635.12 3039.1 3635.12ZM2805.09 3771.12 2014 3771.12 2014 3806.12 2805.09 3806.12ZM2233.07 3942.13 2014 3942.13 2014 3977.13 2233.07 3977.13Z" fill="#ED7D31"/></g><g clip-path="url(#clip4)"><path d="M2041.07 210.007 2014 210.007 2014 245.008 2041.07 245.008ZM2251.07 381.013 2014 381.013 2014 417.014 2251.07 417.014ZM3319.11 552.018 2014 552.018 2014 588.019 3319.11 588.019ZM3383.11 723.024 2014 723.024 2014 759.025 3383.11 759.025ZM2762.09 895.029 2014 895.029 2014 930.031 2762.09 930.031ZM2135.07 1066.03 2014 1066.03 2014 1102.04 2135.07 1102.04ZM2041.07 1237.04 2014 1237.04 2014 1273.04 2041.07 1273.04ZM2102.07 1409.05 2014 1409.05 2014 1444.05 2102.07 1444.05ZM2068.07 1580.05 2014 1580.05 2014 1615.05 2068.07 1615.05ZM2071.07 1751.06 2014 1751.06 2014 1787.06 2071.07 1787.06ZM2120.07 1922.06 2014 1922.06 2014 1958.06 2120.07 1958.06ZM2163.07 2094.07 2014 2094.07 2014 2129.07 2163.07 2129.07ZM2056.07 2265.07 2014 2265.07 2014 2300.08 2056.07 2300.08ZM2050.07 2436.08 2014 2436.08 2014 2472.08 2050.07 2472.08ZM2059.07 2607.09 2014 2607.09 2014 2643.09 2059.07 2643.09ZM2978.1 2779.09 2014 2779.09 2014 2814.09 2978.1 2814.09ZM2038.07 2950.1 2014 2950.1 2014 2985.1 2038.07 2985.1ZM2017.07 3121.1 2014 3121.1 2014 3157.1 2017.07 3157.1ZM2330.08 3292.11 2014 3292.11 2014 3328.11 2330.08 3328.11ZM2059.07 3464.11 2014 3464.11 2014 3499.11 2059.07 3499.11ZM2853.09 3635.12 2014 3635.12 2014 3670.12 2853.09 3670.12ZM2528.08 3806.12 2014 3806.12 2014 3842.13 2528.08 3842.13ZM2190.07 3977.13 2014 3977.13 2014 4013.13 2190.07 4013.13Z" fill="#A5A5A5"/></g><g clip-path="url(#clip5)"><path d="M2013.5 106.5 2013.5 4045.5" stroke="#D9D9D9" stroke-width="3.4375" stroke-linejoin="round" stroke-miterlimit="10" fill="none" fill-rule="evenodd"/></g><g clip-path="url(#clip6)"><text fill="#404040" font-family="Calibri,Calibri_MSFontService,sans-serif" font-weight="400" font-size="41" transform="matrix(1 0 0 1 2074.63 170)">0.11</text></g><g clip-path="url(#clip7)"><text fill="#404040" font-family="Calibri,Calibri_MSFontService,sans-serif" font-weight="400" font-size="41" transform="matrix(1 0 0 1 4006.42 513)">6.46</text></g><g clip-path="url(#clip8)"><text fill="#404040" font-family="Calibri,Calibri_MSFontService,sans-serif" font-weight="400" font-size="41" transform="matrix(1 0 0 1 4024.67 684)">6.52</text></g><g clip-path="url(#clip9)"><text fill="#404040" font-family="Calibri,Calibri_MSFontService,sans-serif" font-weight="400" font-size="41" transform="matrix(1 0 0 1 3066.38 855)">3.37</text></g><g clip-path="url(#clip10)"><text fill="#404040" font-family="Calibri,Calibri_MSFontService,sans-serif" font-weight="400" font-size="41" transform="matrix(1 0 0 1 2077.67 1198)">0.12</text></g><g clip-path="url(#clip11)"><text fill="#404040" font-family="Calibri,Calibri_MSFontService,sans-serif" font-weight="400" font-size="41" transform="matrix(1 0 0 1 2126.34 1540)">0.28</text></g><g clip-path="url(#clip12)"><text fill="#404040" font-family="Calibri,Calibri_MSFontService,sans-serif" font-weight="400" font-size="41" transform="matrix(1 0 0 1 2126.34 1712)">0.28</text></g><g clip-path="url(#clip13)"><text fill="#404040" font-family="Calibri,Calibri_MSFontService,sans-serif" font-weight="400" font-size="41" transform="matrix(1 0 0 1 2156.76 1883)">0.38</text></g><g clip-path="url(#clip14)"><text fill="#404040" font-family="Calibri,Calibri_MSFontService,sans-serif" font-weight="400" font-size="41" transform="matrix(1 0 0 1 2102.01 2225)">0.2</text></g><g clip-path="url(#clip15)"><text fill="#404040" font-family="Calibri,Calibri_MSFontService,sans-serif" font-weight="400" font-size="41" transform="matrix(1 0 0 1 2086.79 2397)">0.15</text></g><g clip-path="url(#clip16)"><text fill="#404040" font-family="Calibri,Calibri_MSFontService,sans-serif" font-weight="400" font-size="41" transform="matrix(1 0 0 1 2804.75 2739)">2.51</text></g><g clip-path="url(#clip17)"><text fill="#404040" font-family="Calibri,Calibri_MSFontService,sans-serif" font-weight="400" font-size="41" transform="matrix(1 0 0 1 2077.67 2910)">0.12</text></g><g clip-path="url(#clip18)"><text fill="#404040" font-family="Calibri,Calibri_MSFontService,sans-serif" font-weight="400" font-size="41" transform="matrix(1 0 0 1 2044.2 3082)">0.01</text></g><g clip-path="url(#clip19)"><text fill="#404040" font-family="Calibri,Calibri_MSFontService,sans-serif" font-weight="400" font-size="41" transform="matrix(1 0 0 1 2506.62 3253)">1.53</text></g><g clip-path="url(#clip20)"><text fill="#404040" font-family="Calibri,Calibri_MSFontService,sans-serif" font-weight="400" font-size="41" transform="matrix(1 0 0 1 2105.05 3424)">0.21</text></g><g clip-path="url(#clip21)"><text fill="#404040" font-family="Calibri,Calibri_MSFontService,sans-serif" font-weight="400" font-size="41" transform="matrix(1 0 0 1 3136.35 3596)">3.6</text></g><g clip-path="url(#clip22)"><text fill="#404040" font-family="Calibri,Calibri_MSFontService,sans-serif" font-weight="400" font-size="41" transform="matrix(1 0 0 1 3020.75 3767)">3.22</text></g><g clip-path="url(#clip23)"><text fill="#404040" font-family="Calibri,Calibri_MSFontService,sans-serif" font-weight="400" font-size="41" transform="matrix(1 0 0 1 2074.63 206)">0.11</text></g><g clip-path="url(#clip24)"><text fill="#404040" font-family="Calibri,Calibri_MSFontService,sans-serif" font-weight="400" font-size="41" transform="matrix(1 0 0 1 2384.93 377)">1.13</text></g><g clip-path="url(#clip25)"><text fill="#404040" font-family="Calibri,Calibri_MSFontService,sans-serif" font-weight="400" font-size="41" transform="matrix(1 0 0 1 3708.28 548)">5.48</text></g><g clip-path="url(#clip26)"><text fill="#404040" font-family="Calibri,Calibri_MSFontService,sans-serif" font-weight="400" font-size="41" transform="matrix(1 0 0 1 3720.45 720)">5.52</text></g><g clip-path="url(#clip27)"><text fill="#404040" font-family="Calibri,Calibri_MSFontService,sans-serif" font-weight="400" font-size="41" transform="matrix(1 0 0 1 2969.03 891)">3.05</text></g><g clip-path="url(#clip28)"><text fill="#404040" font-family="Calibri,Calibri_MSFontService,sans-serif" font-weight="400" font-size="41" transform="matrix(1 0 0 1 2187.19 1062)">0.48</text></g><g clip-path="url(#clip29)"><text fill="#404040" font-family="Calibri,Calibri_MSFontService,sans-serif" font-weight="400" font-size="41" transform="matrix(1 0 0 1 2074.63 1233)">0.11</text></g><g clip-path="url(#clip30)"><text fill="#404040" font-family="Calibri,Calibri_MSFontService,sans-serif" font-weight="400" font-size="41" transform="matrix(1 0 0 1 2150.68 1405)">0.36</text></g><g clip-path="url(#clip31)"><text fill="#404040" font-family="Calibri,Calibri_MSFontService,sans-serif" font-weight="400" font-size="41" transform="matrix(1 0 0 1 2111.13 1576)">0.23</text></g><g clip-path="url(#clip32)"><text fill="#404040" font-family="Calibri,Calibri_MSFontService,sans-serif" font-weight="400" font-size="41" transform="matrix(1 0 0 1 2114.17 1747)">0.24</text></g><g clip-path="url(#clip33)"><text fill="#404040" font-family="Calibri,Calibri_MSFontService,sans-serif" font-weight="400" font-size="41" transform="matrix(1 0 0 1 2141.55 1918)">0.33</text></g><g clip-path="url(#clip34)"><text fill="#404040" font-family="Calibri,Calibri_MSFontService,sans-serif" font-weight="400" font-size="41" transform="matrix(1 0 0 1 2168.93 2090)">0.42</text></g><g clip-path="url(#clip35)"><text fill="#404040" font-family="Calibri,Calibri_MSFontService,sans-serif" font-weight="400" font-size="41" transform="matrix(1 0 0 1 2092.88 2261)">0.17</text></g><g clip-path="url(#clip36)"><text fill="#404040" font-family="Calibri,Calibri_MSFontService,sans-serif" font-weight="400" font-size="41" transform="matrix(1 0 0 1 2086.79 2432)">0.15</text></g><g clip-path="url(#clip37)"><text fill="#404040" font-family="Calibri,Calibri_MSFontService,sans-serif" font-weight="400" font-size="41" transform="matrix(1 0 0 1 2095.92 2603)">0.18</text></g><g clip-path="url(#clip38)"><text fill="#404040" font-family="Calibri,Calibri_MSFontService,sans-serif" font-weight="400" font-size="41" transform="matrix(1 0 0 1 2737.82 2775)">2.29</text></g><g clip-path="url(#clip39)"><text fill="#404040" font-family="Calibri,Calibri_MSFontService,sans-serif" font-weight="400" font-size="41" transform="matrix(1 0 0 1 2074.63 2946)">0.11</text></g><g clip-path="url(#clip40)"><text fill="#404040" font-family="Calibri,Calibri_MSFontService,sans-serif" font-weight="400" font-size="41" transform="matrix(1 0 0 1 2044.2 3117)">0.01</text></g><g clip-path="url(#clip41)"><text fill="#404040" font-family="Calibri,Calibri_MSFontService,sans-serif" font-weight="400" font-size="41" transform="matrix(1 0 0 1 2473.15 3289)">1.42</text></g><g clip-path="url(#clip42)"><text fill="#404040" font-family="Calibri,Calibri_MSFontService,sans-serif" font-weight="400" font-size="41" transform="matrix(1 0 0 1 2098.96 3460)">0.19</text></g><g clip-path="url(#clip43)"><text fill="#404040" font-family="Calibri,Calibri_MSFontService,sans-serif" font-weight="400" font-size="41" transform="matrix(1 0 0 1 3066.38 3631)">3.37</text></g><g clip-path="url(#clip44)"><text fill="#404040" font-family="Calibri,Calibri_MSFontService,sans-serif" font-weight="400" font-size="41" transform="matrix(1 0 0 1 2832.13 3802)">2.6</text></g><g clip-path="url(#clip45)"><text fill="#404040" font-family="Calibri,Calibri_MSFontService,sans-serif" font-weight="400" font-size="41" transform="matrix(1 0 0 1 2260.2 3974)">0.72</text></g><g clip-path="url(#clip46)"><text fill="#404040" font-family="Calibri,Calibri_MSFontService,sans-serif" font-weight="400" font-size="41" transform="matrix(1 0 0 1 2068.54 241)">0.09</text></g><g clip-path="url(#clip47)"><text fill="#404040" font-family="Calibri,Calibri_MSFontService,sans-serif" font-weight="400" font-size="41" transform="matrix(1 0 0 1 2278.45 413)">0.78</text></g><g clip-path="url(#clip48)"><text fill="#404040" font-family="Calibri,Calibri_MSFontService,sans-serif" font-weight="400" font-size="41" transform="matrix(1 0 0 1 3346.26 584)">4.29</text></g><g clip-path="url(#clip49)"><text fill="#404040" font-family="Calibri,Calibri_MSFontService,sans-serif" font-weight="400" font-size="41" transform="matrix(1 0 0 1 3410.15 755)">4.5</text></g><g clip-path="url(#clip50)"><text fill="#404040" font-family="Calibri,Calibri_MSFontService,sans-serif" font-weight="400" font-size="41" transform="matrix(1 0 0 1 2789.54 926)">2.46</text></g><g clip-path="url(#clip51)"><text fill="#404040" font-family="Calibri,Calibri_MSFontService,sans-serif" font-weight="400" font-size="41" transform="matrix(1 0 0 1 2162.85 1098)">0.4</text></g><g clip-path="url(#clip52)"><text fill="#404040" font-family="Calibri,Calibri_MSFontService,sans-serif" font-weight="400" font-size="41" transform="matrix(1 0 0 1 2068.54 1269)">0.09</text></g><g clip-path="url(#clip53)"><text fill="#404040" font-family="Calibri,Calibri_MSFontService,sans-serif" font-weight="400" font-size="41" transform="matrix(1 0 0 1 2129.38 1440)">0.29</text></g><g clip-path="url(#clip54)"><text fill="#404040" font-family="Calibri,Calibri_MSFontService,sans-serif" font-weight="400" font-size="41" transform="matrix(1 0 0 1 2095.92 1611)">0.18</text></g><g clip-path="url(#clip55)"><text fill="#404040" font-family="Calibri,Calibri_MSFontService,sans-serif" font-weight="400" font-size="41" transform="matrix(1 0 0 1 2098.96 1783)">0.19</text></g><g clip-path="url(#clip56)"><text fill="#404040" font-family="Calibri,Calibri_MSFontService,sans-serif" font-weight="400" font-size="41" transform="matrix(1 0 0 1 2147.64 1954)">0.35</text></g><g clip-path="url(#clip57)"><text fill="#404040" font-family="Calibri,Calibri_MSFontService,sans-serif" font-weight="400" font-size="41" transform="matrix(1 0 0 1 2190.23 2125)">0.49</text></g><g clip-path="url(#clip58)"><text fill="#404040" font-family="Calibri,Calibri_MSFontService,sans-serif" font-weight="400" font-size="41" transform="matrix(1 0 0 1 2083.75 2296)">0.14</text></g><g clip-path="url(#clip59)"><text fill="#404040" font-family="Calibri,Calibri_MSFontService,sans-serif" font-weight="400" font-size="41" transform="matrix(1 0 0 1 2077.67 2468)">0.12</text></g><g clip-path="url(#clip60)"><text fill="#404040" font-family="Calibri,Calibri_MSFontService,sans-serif" font-weight="400" font-size="41" transform="matrix(1 0 0 1 2086.79 2639)">0.15</text></g><g clip-path="url(#clip61)"><text fill="#404040" font-family="Calibri,Calibri_MSFontService,sans-serif" font-weight="400" font-size="41" transform="matrix(1 0 0 1 3005.54 2810)">3.17</text></g><g clip-path="url(#clip62)"><text fill="#404040" font-family="Calibri,Calibri_MSFontService,sans-serif" font-weight="400" font-size="41" transform="matrix(1 0 0 1 2065.5 2982)">0.08</text></g><g clip-path="url(#clip63)"><text fill="#404040" font-family="Calibri,Calibri_MSFontService,sans-serif" font-weight="400" font-size="41" transform="matrix(1 0 0 1 2044.2 3153)">0.01</text></g><g clip-path="url(#clip64)"><text fill="#404040" font-family="Calibri,Calibri_MSFontService,sans-serif" font-weight="400" font-size="41" transform="matrix(1 0 0 1 2357.55 3324)">1.04</text></g><g clip-path="url(#clip65)"><text fill="#404040" font-family="Calibri,Calibri_MSFontService,sans-serif" font-weight="400" font-size="41" transform="matrix(1 0 0 1 2086.79 3495)">0.15</text></g><g clip-path="url(#clip66)"><text fill="#404040" font-family="Calibri,Calibri_MSFontService,sans-serif" font-weight="400" font-size="41" transform="matrix(1 0 0 1 2880.81 3667)">2.76</text></g><g clip-path="url(#clip67)"><text fill="#404040" font-family="Calibri,Calibri_MSFontService,sans-serif" font-weight="400" font-size="41" transform="matrix(1 0 0 1 2555.29 3838)">1.69</text></g><g clip-path="url(#clip68)"><text fill="#404040" font-family="Calibri,Calibri_MSFontService,sans-serif" font-weight="400" font-size="41" transform="matrix(1 0 0 1 2217.61 4009)">0.58</text></g><g clip-path="url(#clip69)"><text fill="#595959" font-family="Calibri,Calibri_MSFontService,sans-serif" font-weight="400" font-size="41" transform="matrix(1 0 0 1 2003.21 64)">0</text></g><g clip-path="url(#clip70)"><text fill="#595959" font-family="Calibri,Calibri_MSFontService,sans-serif" font-weight="400" font-size="41" transform="matrix(1 0 0 1 2307.43 64)">1</text></g><g clip-path="url(#clip71)"><text fill="#595959" font-family="Calibri,Calibri_MSFontService,sans-serif" font-weight="400" font-size="41" transform="matrix(1 0 0 1 2611.65 64)">2</text></g><g clip-path="url(#clip72)"><text fill="#595959" font-family="Calibri,Calibri_MSFontService,sans-serif" font-weight="400" font-size="41" transform="matrix(1 0 0 1 2915.87 64)">3</text></g><g clip-path="url(#clip73)"><text fill="#595959" font-family="Calibri,Calibri_MSFontService,sans-serif" font-weight="400" font-size="41" transform="matrix(1 0 0 1 3220.09 64)">4</text></g><g clip-path="url(#clip74)"><text fill="#595959" font-family="Calibri,Calibri_MSFontService,sans-serif" font-weight="400" font-size="41" transform="matrix(1 0 0 1 3524.31 64)">5</text></g><g clip-path="url(#clip75)"><text fill="#595959" font-family="Calibri,Calibri_MSFontService,sans-serif" font-weight="400" font-size="41" transform="matrix(1 0 0 1 3828.53 64)">6</text></g><g clip-path="url(#clip76)"><text fill="#595959" font-family="Calibri,Calibri_MSFontService,sans-serif" font-weight="400" font-size="41" transform="matrix(1 0 0 1 4132.75 64)">7</text></g><g clip-path="url(#clip77)"><text fill="#595959" font-family="Calibri,Calibri_MSFontService,sans-serif" font-weight="400" font-size="41" transform="matrix(1 0 0 1 1879.03 204)">count</text></g><g clip-path="url(#clip78)"><text fill="#595959" font-family="Calibri,Calibri_MSFontService,sans-serif" font-weight="400" font-size="41" transform="matrix(1 0 0 1 1934.42 375)">fill</text></g><g clip-path="url(#clip79)"><text fill="#595959" font-family="Calibri,Calibri_MSFontService,sans-serif" font-weight="400" font-size="41" transform="matrix(1 0 0 1 1863.74 546)">flatten</text></g><g clip-path="url(#clip80)"><text fill="#595959" font-family="Calibri,Calibri_MSFontService,sans-serif" font-weight="400" font-size="41" transform="matrix(1 0 0 1 1660.11 717)">flatten_condensed</text></g><g clip-path="url(#clip81)"><text fill="#595959" font-family="Calibri,Calibri_MSFontService,sans-serif" font-weight="400" font-size="41" transform="matrix(1 0 0 1 1806.2 889)">frequency</text></g><g clip-path="url(#clip82)"><text fill="#595959" font-family="Calibri,Calibri_MSFontService,sans-serif" font-weight="400" font-size="41" transform="matrix(1 0 0 1 1646.79 1060)">frequency_selregex</text></g><g clip-path="url(#clip83)"><text fill="#595959" font-family="Calibri,Calibri_MSFontService,sans-serif" font-weight="400" font-size="41" transform="matrix(1 0 0 1 1884.16 1231)">index</text></g><g clip-path="url(#clip84)"><text fill="#595959" font-family="Calibri,Calibri_MSFontService,sans-serif" font-weight="400" font-size="41" transform="matrix(1 0 0 1 1845.55 1402)">rename</text></g><g clip-path="url(#clip85)"><text fill="#595959" font-family="Calibri,Calibri_MSFontService,sans-serif" font-weight="400" font-size="41" transform="matrix(1 0 0 1 1792.54 1574)">sample_10</text></g><g clip-path="url(#clip86)"><text fill="#595959" font-family="Calibri,Calibri_MSFontService,sans-serif" font-weight="400" font-size="41" transform="matrix(1 0 0 1 1750.74 1745)">sample_1000</text></g><g clip-path="url(#clip87)"><text fill="#595959" font-family="Calibri,Calibri_MSFontService,sans-serif" font-weight="400" font-size="41" transform="matrix(1 0 0 1 1708.94 1916)">sample_100000</text></g><g clip-path="url(#clip88)"><text fill="#595959" font-family="Calibri,Calibri_MSFontService,sans-serif" font-weight="400" font-size="41" transform="matrix(1 0 0 1 1627.84 2087)">sample_25pct_index</text></g><g clip-path="url(#clip89)"><text fill="#595959" font-family="Calibri,Calibri_MSFontService,sans-serif" font-weight="400" font-size="41" transform="matrix(1 0 0 1 1865.46 2259)">search</text></g><g clip-path="url(#clip90)"><text fill="#595959" font-family="Calibri,Calibri_MSFontService,sans-serif" font-weight="400" font-size="41" transform="matrix(1 0 0 1 1877.47 2430)">select</text></g><g clip-path="url(#clip91)"><text fill="#595959" font-family="Calibri,Calibri_MSFontService,sans-serif" font-weight="400" font-size="41" transform="matrix(1 0 0 1 1764.19 2601)">select_regex</text></g><g clip-path="url(#clip92)"><text fill="#595959" font-family="Calibri,Calibri_MSFontService,sans-serif" font-weight="400" font-size="41" transform="matrix(1 0 0 1 1909.3 2772)">sort</text></g><g clip-path="url(#clip93)"><text fill="#595959" font-family="Calibri,Calibri_MSFontService,sans-serif" font-weight="400" font-size="41" transform="matrix(1 0 0 1 1681.56 2944)">slice_one_middle</text></g><g clip-path="url(#clip94)"><text fill="#595959" font-family="Calibri,Calibri_MSFontService,sans-serif" font-weight="400" font-size="41" transform="matrix(1 0 0 1 1569.79 3115)">slice_one_middle_index</text></g><g clip-path="url(#clip95)"><text fill="#595959" font-family="Calibri,Calibri_MSFontService,sans-serif" font-weight="400" font-size="41" transform="matrix(1 0 0 1 1895.74 3286)">stats</text></g><g clip-path="url(#clip96)"><text fill="#595959" font-family="Calibri,Calibri_MSFontService,sans-serif" font-weight="400" font-size="41" transform="matrix(1 0 0 1 1783.97 3457)">stats_index</text></g><g clip-path="url(#clip97)"><text fill="#595959" font-family="Calibri,Calibri_MSFontService,sans-serif" font-weight="400" font-size="41" transform="matrix(1 0 0 1 1696.38 3629)">stats_everything</text></g><g clip-path="url(#clip98)"><text fill="#595959" font-family="Calibri,Calibri_MSFontService,sans-serif" font-weight="400" font-size="41" transform="matrix(1 0 0 1 1584.62 3800)">stats_everything_index</text></g><g clip-path="url(#clip99)"><text fill="#595959" font-family="Calibri,Calibri_MSFontService,sans-serif" font-weight="400" font-size="41" transform="matrix(1 0 0 1 1809.52 3971)">transpose</text></g><g clip-path="url(#clip100)"><rect x="2533" y="4123" width="23" height="23" fill="#4472C4"/></g><g clip-path="url(#clip101)"><text fill="#595959" font-family="Calibri,Calibri_MSFontService,sans-serif" font-weight="400" font-size="41" transform="matrix(1 0 0 1 2565.59 4146)">xsv 0.13.0</text></g><g clip-path="url(#clip102)"><rect x="2777" y="4123" width="22.9998" height="23" fill="#ED7D31"/></g><g clip-path="url(#clip103)"><text fill="#595959" font-family="Calibri,Calibri_MSFontService,sans-serif" font-weight="400" font-size="41" transform="matrix(1 0 0 1 2809.41 4146)">qsv 0.14.0</text></g><g clip-path="url(#clip104)"><rect x="3025" y="4123" width="22" height="23" fill="#A5A5A5"/></g><g clip-path="url(#clip105)"><text fill="#595959" font-family="Calibri,Calibri_MSFontService,sans-serif" font-weight="400" font-size="41" transform="matrix(1 0 0 1 3057.04 4146)">qsv 0.14.1</text></g><rect x="1540.5" y="0.499836" width="2664" height="4201" stroke="#D9D9D9" stroke-width="3.4375" stroke-linejoin="round" stroke-miterlimit="10" fill="none"/></g></svg>